<?xml version="1.0" encoding="utf-8"?>
<!-- Generator: Adobe Illustrator 16.0.0, SVG Export Plug-In . SVG Version: 6.00 Build 0)  -->
<!DOCTYPE svg PUBLIC "-//W3C//DTD SVG 1.1//EN" "http://www.w3.org/Graphics/SVG/1.1/DTD/svg11.dtd">
<svg version="1.1" xmlns="http://www.w3.org/2000/svg" xmlns:xlink="http://www.w3.org/1999/xlink" x="0px" y="0px"
	 width="417.447px" height="192px" viewBox="0 0 417.447 192" enable-background="new 0 0 417.447 192" xml:space="preserve">
<g id="Layer_1">
</g>
<g id="Layer_2">
</g>
<g id="Layer_3">
</g>
<g id="Layer_4">
</g>
<g id="Layer_5">
	<g>
		<g>
			<path fill="#3D3D3D" d="M169,192H0V23h169V192z M4,188h161V27H4V188z"/>
		</g>
		<g>
			<path fill="#3D3D3D" d="M192,161H31V0h161V161z M35,157h153V4H35V157z"/>
		</g>
		<g>
			<rect x="16" y="52" fill="#D85555" width="74" height="76"/>
		</g>
		<g>
			<path fill="#3D3D3D" d="M101,101H39V37h62V101z M41,99h58V39H41V99z"/>
		</g>
		<g>
			<circle fill="#EDA55F" cx="128.112" cy="159.365" r="22.667"/>
		</g>
		<g>
			<path fill="#3D3D3D" d="M119.869,166.289c-9.5,0-17.228-7.729-17.228-17.228s7.728-17.228,17.228-17.228
				s17.228,7.729,17.228,17.228S129.369,166.289,119.869,166.289z M119.869,133.834c-8.396,0-15.228,6.831-15.228,15.228
				s6.831,15.228,15.228,15.228s15.228-6.831,15.228-15.228S128.266,133.834,119.869,133.834z"/>
		</g>
		<g>
			<polygon fill="#57C483" points="104.066,95 128.455,52.757 152.843,95 			"/>
		</g>
		<g>
			<path fill="#3D3D3D" d="M152.171,103h-37.534l18.767-32.506L152.171,103z M118.101,101h30.606l-15.304-26.506L118.101,101z"/>
		</g>
		<g>
			<path fill="#3D3D3D" d="M219.832,39.799h2.832l14.16,34.08h-3.552l-4.416-10.656h-15.313l-4.368,10.656h-3.6L219.832,39.799z
				 M228.088,60.583l-6.864-16.849l-6.96,16.849H228.088z"/>
			<path fill="#3D3D3D" d="M241.72,73.879v-34.08h14.399c1.472,0,2.824,0.305,4.056,0.912c1.232,0.608,2.296,1.433,3.192,2.473
				c0.896,1.039,1.592,2.191,2.088,3.455c0.496,1.265,0.744,2.553,0.744,3.864c0,1.664-0.312,3.216-0.936,4.656
				c-0.624,1.439-1.513,2.656-2.664,3.647c-1.152,0.992-2.48,1.632-3.984,1.92l8.352,13.152h-3.792l-8.016-12.576h-10.08v12.576
				H241.72z M245.079,58.327h11.136c1.345,0,2.512-0.376,3.505-1.128c0.991-0.752,1.759-1.72,2.304-2.904
				c0.544-1.184,0.815-2.448,0.815-3.792c0-1.376-0.312-2.647-0.936-3.815s-1.464-2.113-2.521-2.832
				c-1.056-0.721-2.208-1.08-3.455-1.08h-10.849V58.327z"/>
			<path fill="#3D3D3D" d="M296.92,42.775h-12.144v31.104h-3.36V42.775h-12.144v-2.977h27.647V42.775z"/>
		</g>
		<g>
			<path fill="#3D3D3D" d="M222.952,125.619c-2.304,0-4.425-0.487-6.36-1.464c-1.937-0.977-3.624-2.296-5.064-3.96
				c-1.439-1.664-2.552-3.528-3.336-5.593c-0.783-2.063-1.176-4.167-1.176-6.312c0-2.271,0.393-4.44,1.176-6.504
				c0.784-2.064,1.88-3.904,3.289-5.521c1.407-1.615,3.071-2.887,4.991-3.815c1.92-0.928,4.016-1.393,6.288-1.393
				c3.36,0,6.097,0.688,8.208,2.064c2.112,1.376,3.712,3.168,4.8,5.376l-2.592,1.728c-1.088-2.111-2.544-3.663-4.368-4.655
				c-1.823-0.992-3.856-1.488-6.096-1.488c-1.889,0-3.593,0.4-5.112,1.2s-2.815,1.872-3.888,3.216s-1.896,2.864-2.472,4.56
				c-0.576,1.697-0.864,3.456-0.864,5.28c0,1.92,0.319,3.736,0.96,5.448c0.64,1.712,1.543,3.232,2.712,4.56
				c1.168,1.328,2.527,2.369,4.08,3.12c1.552,0.752,3.24,1.128,5.064,1.128c1.951,0,3.815-0.463,5.592-1.392
				c1.775-0.928,3.479-2.368,5.112-4.32v-5.664h-7.585v-2.592h10.416v16.752h-2.831v-4.992
				C230.76,123.875,227.111,125.619,222.952,125.619z"/>
			<path fill="#3D3D3D" d="M254.199,91.299h2.832l14.16,34.08h-3.552l-4.416-10.656h-15.313l-4.368,10.656h-3.6L254.199,91.299z
				 M262.455,112.083l-6.864-16.848l-6.96,16.848H262.455z"/>
			<path fill="#3D3D3D" d="M276.088,125.379v-34.08h3.359v31.104h19.68v2.976H276.088z"/>
			<path fill="#3D3D3D" d="M304.071,125.379v-34.08h3.359v31.104h19.68v2.976H304.071z"/>
			<path fill="#3D3D3D" d="M354.95,122.403v2.976h-22.896v-34.08h22.464v2.977h-19.104v12.287h16.656v2.832h-16.656v13.009H354.95z"
				/>
			<path fill="#3D3D3D" d="M361.286,125.379v-34.08h14.399c1.472,0,2.824,0.305,4.056,0.912c1.232,0.608,2.296,1.433,3.192,2.472
				c0.896,1.041,1.592,2.192,2.088,3.456c0.496,1.265,0.744,2.553,0.744,3.864c0,1.664-0.312,3.216-0.936,4.656
				c-0.624,1.439-1.513,2.656-2.664,3.647c-1.152,0.992-2.48,1.632-3.984,1.92l8.352,13.152h-3.792l-8.016-12.576h-10.08v12.576
				H361.286z M364.646,109.827h11.136c1.345,0,2.512-0.376,3.505-1.128c0.991-0.752,1.759-1.72,2.304-2.904
				c0.544-1.184,0.815-2.448,0.815-3.792c0-1.376-0.312-2.647-0.936-3.816c-0.624-1.167-1.464-2.111-2.521-2.832
				c-1.056-0.72-2.208-1.079-3.455-1.079h-10.849V109.827z"/>
			<path fill="#3D3D3D" d="M391.431,91.299l11.136,18.336l11.232-18.336h3.648l-13.2,21.408v12.672h-3.36v-12.768l-13.152-21.313
				H391.431z"/>
		</g>
	</g>
</g>
</svg>
